<?xml version="1.0" encoding="UTF-8"?><svg id="uuid-90fc367c-effd-4ba8-a2ef-d65916032176" xmlns="http://www.w3.org/2000/svg" viewBox="0 0 142.84 141.34"><defs><style>.uuid-f325bf90-198b-46f5-9264-0d6502c6fb35,.uuid-5a2c741e-cd4e-4097-b5f0-afa722ccae33{opacity:.2;}.uuid-6446814a-1eff-4ede-b4ba-5c070db11e1d{fill:none;opacity:.1;stroke:#000;stroke-miterlimit:10;stroke-width:2px;}.uuid-61255d79-55ce-4d45-a1c8-25a85b6a225f{fill:#ac7d38;}.uuid-a24cd36a-8c62-415b-9e4f-349279e994c5{fill:#563f1c;}.uuid-5a2c741e-cd4e-4097-b5f0-afa722ccae33{fill:#fff;}</style></defs><g id="uuid-bdee06e0-62d2-45f9-94a5-5a07a83f6fb9"><g><rect class="uuid-61255d79-55ce-4d45-a1c8-25a85b6a225f" width="71.42" height="141.34"/><polygon class="uuid-5a2c741e-cd4e-4097-b5f0-afa722ccae33" points="59.88 10.15 59.88 131.19 11.54 131.19 16.62 126.1 54.8 126.1 54.8 15.24 59.88 10.15"/><polygon class="uuid-f325bf90-198b-46f5-9264-0d6502c6fb35" points="59.88 10.15 54.8 15.24 16.62 15.24 16.62 126.1 11.54 131.19 11.54 10.15 59.88 10.15"/><rect class="uuid-61255d79-55ce-4d45-a1c8-25a85b6a225f" x="71.42" width="71.42" height="141.34"/><polygon class="uuid-5a2c741e-cd4e-4097-b5f0-afa722ccae33" points="131.3 10.15 131.3 131.19 82.96 131.19 88.04 126.1 126.22 126.1 126.22 15.24 131.3 10.15"/><polygon class="uuid-f325bf90-198b-46f5-9264-0d6502c6fb35" points="131.3 10.15 126.22 15.24 88.04 15.24 88.04 126.1 82.96 131.19 82.96 10.15 131.3 10.15"/><line class="uuid-6446814a-1eff-4ede-b4ba-5c070db11e1d" x1="71.42" x2="71.42" y2="141.34"/><path class="uuid-a24cd36a-8c62-415b-9e4f-349279e994c5" d="m48.54,67.89h15.19c.93,0,1.69.76,1.69,1.69v2.18c0,.93-.76,1.69-1.69,1.69h-15.19c-.93,0-1.69-.76-1.69-1.69v-2.18c0-.93.76-1.69,1.69-1.69Z"/><path class="uuid-a24cd36a-8c62-415b-9e4f-349279e994c5" d="m79.11,67.89h15.19c.93,0,1.69.76,1.69,1.69v2.18c0,.93-.76,1.69-1.69,1.69h-15.19c-.93,0-1.69-.76-1.69-1.69v-2.18c0-.93.76-1.69,1.69-1.69Z"/></g></g></svg>