<?xml version="1.0" encoding="UTF-8"?><svg id="uuid-f08f2d40-fd70-40ab-b136-1a82cecc3eeb" xmlns="http://www.w3.org/2000/svg" viewBox="0 0 142.72 156.05"><defs><style>.uuid-41821ca8-a18d-43bc-8c37-a1eceb6aece2,.uuid-0dc75eee-3434-4fb3-b90d-b9c982c819dc{fill:#66471f;}.uuid-e25dad23-93c8-4b16-9405-cd7854c17f4f{fill:#725733;}.uuid-efd038f9-12e5-4273-a8de-b85898b5563a,.uuid-7f835879-e738-493a-9129-4f5d8dfaccb6{opacity:.2;}.uuid-51bdbeb6-ac74-4b7f-ae0a-9a9e8dbc59cc{fill:#815e2a;}.uuid-1ce9e70d-2f75-4127-9c02-2bf566937ce0{fill:#ba863e;}.uuid-0dc75eee-3434-4fb3-b90d-b9c982c819dc{stroke:#ac7d38;stroke-miterlimit:10;stroke-width:7.57px;}.uuid-7f835879-e738-493a-9129-4f5d8dfaccb6{fill:#fff;}</style></defs><g id="uuid-40e67eaf-cb9c-411f-809a-a8503deda62f"><g><rect class="uuid-0dc75eee-3434-4fb3-b90d-b9c982c819dc" x="3.78" y="3.78" width="135.15" height="133.73"/><rect x="4.42" y="3.46" width="133.88" height="133.79"/><polygon class="uuid-1ce9e70d-2f75-4127-9c02-2bf566937ce0" points="138.94 3.48 98.22 22.09 98.22 156.02 138.94 137.27 138.94 3.48"/><polygon class="uuid-efd038f9-12e5-4273-a8de-b85898b5563a" points="132.3 16.01 104.76 28.55 104.76 143.49 107.78 136.92 107.78 31.94 129.51 22.16 132.3 16.01"/><polygon class="uuid-7f835879-e738-493a-9129-4f5d8dfaccb6" points="104.85 143.49 132.39 130.95 132.39 16.01 129.38 22.58 129.38 127.56 107.64 137.34 104.85 143.49"/><path class="uuid-41821ca8-a18d-43bc-8c37-a1eceb6aece2" d="m102,84.61v2.13c0,1.04,1.01,1.75,1.91,1.34l7.5-3.41c.5-.23.83-.75.83-1.34v-2.13c0-1.04-1.01-1.75-1.91-1.34l-7.5,3.41c-.5.23-.83.75-.83,1.34Z"/><polygon class="uuid-1ce9e70d-2f75-4127-9c02-2bf566937ce0" points="3.78 3.48 44.5 22.09 44.5 156.02 3.78 137.27 3.78 3.48"/><polygon class="uuid-efd038f9-12e5-4273-a8de-b85898b5563a" points="10.3 16.24 10.3 130.71 13.36 127.26 13.36 22.51 34.92 32.31 37.98 28.95 10.3 16.24"/><polygon class="uuid-7f835879-e738-493a-9129-4f5d8dfaccb6" points="37.98 143.49 37.98 29.02 34.92 32.48 34.92 137.22 13.36 127.42 10.3 130.78 37.98 143.49"/><path class="uuid-41821ca8-a18d-43bc-8c37-a1eceb6aece2" d="m40.71,84.61v2.13c0,1.04-1.01,1.75-1.91,1.34l-7.5-3.41c-.5-.23-.83-.75-.83-1.34v-2.13c0-1.04,1.01-1.75,1.91-1.34l7.5,3.41c.5.23.83.75.83,1.34Z"/><polygon class="uuid-51bdbeb6-ac74-4b7f-ae0a-9a9e8dbc59cc" points="46.02 21.06 46.02 154.52 44.5 156.05 44.5 22.09 44.48 22.08 46 21.06 46.02 21.06"/><polygon class="uuid-e25dad23-93c8-4b16-9405-cd7854c17f4f" points="46 21.06 44.48 22.08 3.78 3.49 6.87 3.49 46 21.06"/><polygon class="uuid-51bdbeb6-ac74-4b7f-ae0a-9a9e8dbc59cc" points="96.7 21.06 96.7 154.52 98.22 156.05 98.22 22.09 98.24 22.08 96.72 21.06 96.7 21.06"/><polygon class="uuid-e25dad23-93c8-4b16-9405-cd7854c17f4f" points="96.72 21.06 98.24 22.08 138.94 3.49 135.85 3.49 96.72 21.06"/></g></g></svg>