<?xml version="1.0" encoding="UTF-8"?><svg id="uuid-ab75de42-232a-4cee-973e-71a7505d052f" xmlns="http://www.w3.org/2000/svg" viewBox="0 0 142.72 141.3"><defs><style>.uuid-85f1addf-bc42-416e-9f8f-b492d381a711,.uuid-79599300-9425-4e7c-b04c-056a99c919d1{fill:#66471f;}.uuid-fd630d4f-f03c-4019-922b-86c40c8baa9c,.uuid-eb32cb3d-4e1b-4726-bebb-c56bcfcd3d1a{opacity:.2;}.uuid-b40dcad9-eb2d-44de-b575-467004b7bf18{fill:none;opacity:.1;stroke:#000;stroke-width:1.89px;}.uuid-b40dcad9-eb2d-44de-b575-467004b7bf18,.uuid-79599300-9425-4e7c-b04c-056a99c919d1{stroke-miterlimit:10;}.uuid-ae10d355-1ae9-4eaf-bef1-a11453cde485{fill:#ba863e;}.uuid-79599300-9425-4e7c-b04c-056a99c919d1{stroke:#ac7d38;stroke-width:7.57px;}.uuid-eb32cb3d-4e1b-4726-bebb-c56bcfcd3d1a{fill:#fff;}</style></defs><g id="uuid-f8343df7-3caa-46e8-9c66-0e8f2eb8a548"><g><rect class="uuid-79599300-9425-4e7c-b04c-056a99c919d1" x="3.78" y="3.78" width="135.15" height="133.73"/><rect class="uuid-ae10d355-1ae9-4eaf-bef1-a11453cde485" x="3.78" y="3.78" width="67.58" height="133.73"/><polygon class="uuid-eb32cb3d-4e1b-4726-bebb-c56bcfcd3d1a" points="60.44 13.39 60.44 127.91 14.7 127.91 19.51 123.1 55.63 123.1 55.63 18.2 60.44 13.39"/><polygon class="uuid-fd630d4f-f03c-4019-922b-86c40c8baa9c" points="60.44 13.39 55.63 18.2 19.51 18.2 19.51 123.1 14.7 127.91 14.7 13.39 60.44 13.39"/><rect class="uuid-ae10d355-1ae9-4eaf-bef1-a11453cde485" x="71.36" y="3.78" width="67.58" height="133.73"/><polygon class="uuid-eb32cb3d-4e1b-4726-bebb-c56bcfcd3d1a" points="128.02 13.39 128.02 127.91 82.28 127.91 87.09 123.1 123.21 123.1 123.21 18.2 128.02 13.39"/><polygon class="uuid-fd630d4f-f03c-4019-922b-86c40c8baa9c" points="128.02 13.39 123.21 18.2 87.09 18.2 87.09 123.1 82.28 127.91 82.28 13.39 128.02 13.39"/><line class="uuid-b40dcad9-eb2d-44de-b575-467004b7bf18" x1="71.36" y1="3.78" x2="71.36" y2="137.52"/><path class="uuid-85f1addf-bc42-416e-9f8f-b492d381a711" d="m49.81,68.02h14.19c.93,0,1.69.76,1.69,1.69v1.88c0,.93-.76,1.69-1.69,1.69h-14.19c-.93,0-1.69-.76-1.69-1.69v-1.88c0-.93.76-1.69,1.69-1.69Z"/><path class="uuid-85f1addf-bc42-416e-9f8f-b492d381a711" d="m78.72,68.02h14.19c.93,0,1.69.76,1.69,1.69v1.88c0,.93-.76,1.69-1.69,1.69h-14.19c-.93,0-1.69-.76-1.69-1.69v-1.88c0-.93.76-1.69,1.69-1.69Z"/></g></g></svg>