<?xml version="1.0" encoding="UTF-8"?><svg id="uuid-edcb2c18-0bf7-4972-acc6-34e6c67c8b2a" xmlns="http://www.w3.org/2000/svg" viewBox="0 0 142.84 161.27"><defs><style>.uuid-57a4e0f8-5b6f-4c88-b39d-0bbf9cf95deb{fill:#725733;}.uuid-55c4bcb2-cea9-4afd-a4fe-865048ef4f43,.uuid-1591a89a-ecc9-4135-887a-34cc78db7fa0{opacity:.2;}.uuid-667976a9-33f5-487b-b6fd-97d39f17ee7e{fill:#815e2a;}.uuid-b20ceb0b-e88a-4c5d-b6ea-08c930c3ae08{fill:#ac7d38;}.uuid-9856657a-1036-44d6-a3a0-d7a95625a01e{fill:#563f1c;}.uuid-1591a89a-ecc9-4135-887a-34cc78db7fa0{fill:#fff;}</style></defs><g id="uuid-ce21b03d-1e44-40ac-a68d-fd74c4bc5422"><rect width="142.84" height="141.4"/><g><g><polygon class="uuid-b20ceb0b-e88a-4c5d-b6ea-08c930c3ae08" points="142.84 .03 99.81 19.7 99.81 161.24 142.84 141.43 142.84 .03"/><polygon class="uuid-55c4bcb2-cea9-4afd-a4fe-865048ef4f43" points="135.83 13.26 106.72 26.52 106.72 148.01 109.91 141.05 109.91 30.1 132.88 19.77 135.83 13.26"/><polygon class="uuid-1591a89a-ecc9-4135-887a-34cc78db7fa0" points="106.82 148.01 135.93 134.75 135.93 13.26 132.74 20.22 132.74 131.17 109.77 141.5 106.82 148.01"/><path class="uuid-9856657a-1036-44d6-a3a0-d7a95625a01e" d="m103.81,85.77v2.25c0,1.1,1.06,1.85,2.02,1.41l7.93-3.6c.53-.24.88-.8.88-1.41v-2.25c0-1.1-1.06-1.85-2.02-1.41l-7.93,3.6c-.53.24-.88.8-.88,1.41Z"/></g><g><polygon class="uuid-b20ceb0b-e88a-4c5d-b6ea-08c930c3ae08" points="0 .03 43.03 19.7 43.03 161.24 0 141.43 0 .03"/><polygon class="uuid-55c4bcb2-cea9-4afd-a4fe-865048ef4f43" points="6.89 13.51 6.89 134.5 10.13 130.85 10.13 20.14 32.91 30.5 36.14 26.95 6.89 13.51"/><polygon class="uuid-1591a89a-ecc9-4135-887a-34cc78db7fa0" points="36.14 148.01 36.14 27.02 32.91 30.67 32.91 141.38 10.13 131.02 6.89 134.57 36.14 148.01"/><path class="uuid-9856657a-1036-44d6-a3a0-d7a95625a01e" d="m39.03,85.77v2.25c0,1.1-1.06,1.85-2.02,1.41l-7.93-3.6c-.53-.24-.88-.8-.88-1.41v-2.25c0-1.1,1.06-1.85,2.02-1.41l7.93,3.6c.53.24.88.8.88,1.41Z"/></g></g><polygon class="uuid-667976a9-33f5-487b-b6fd-97d39f17ee7e" points="44.64 18.61 44.64 159.66 43.03 161.27 43.03 19.69 43.01 19.68 44.62 18.6 44.64 18.61"/><polygon class="uuid-57a4e0f8-5b6f-4c88-b39d-0bbf9cf95deb" points="44.62 18.6 43.01 19.68 0 .03 3.26 .03 44.62 18.6"/><polygon class="uuid-667976a9-33f5-487b-b6fd-97d39f17ee7e" points="98.2 18.61 98.2 159.66 99.81 161.27 99.81 19.69 99.83 19.68 98.22 18.6 98.2 18.61"/><polygon class="uuid-57a4e0f8-5b6f-4c88-b39d-0bbf9cf95deb" points="98.22 18.6 99.83 19.68 142.84 .03 139.58 .03 98.22 18.6"/></g></svg>