<?xml version="1.0" encoding="UTF-8"?><svg id="uuid-b4cd23e9-9daa-43d3-9dc9-660dbfc0a5e4" xmlns="http://www.w3.org/2000/svg" viewBox="0 0 73.98 54.01"><defs><style>.uuid-f0b4b31c-277f-4766-b165-ba1a7cdc5c6f{fill:#fff;}</style></defs><g id="uuid-52a7fd8f-43c8-42db-8bd6-67fc26399508"><path class="uuid-f0b4b31c-277f-4766-b165-ba1a7cdc5c6f" d="M62.22,47.99H13.25c-.48,0-.97,0-1.45,0-1.98-.03-3.87-1.04-4.9-2.75-.72-1.2-.84-2.14-.84-3.59V14.25c0-.81-.01-1.63,0-2.44,.03-1.84,.92-3.7,2.33-4.69,1.28-.89,2.27-1.1,3.7-1.11,.74,0,1.47,0,2.21,0H59.27c.83,0,1.66,0,2.49,0,1.12,0,2,.1,2.85,.52,2.11,1.05,3.29,3.01,3.32,5.21,.01,.7,0,1.4,0,2.09v27.53c0,1.24,.02,2.04-.4,3.06-.89,2.17-3.03,3.52-5.32,3.57-3.86,.08-3.87,6.08,0,6,6.59-.13,11.68-5.43,11.72-11.98,.02-2.94,0-5.88,0-8.82,0-7.14,.11-14.28,0-21.42C73.84,5.29,68.65,.11,62.17,.01,60.33-.02,58.5,.01,56.66,.01H30.93C24.65,.01,18.37-.01,12.09,.01,6.32,.04,1.1,4.05,.23,9.9-.15,12.47,.06,15.18,.06,17.77v23.68c0,1.62,.12,3.24,.7,4.77,1.35,3.52,4.19,6.29,7.85,7.33,2.12,.6,4.44,.44,6.63,.44H62.22c3.86,0,3.87-6,0-6Z"/><path class="uuid-f0b4b31c-277f-4766-b165-ba1a7cdc5c6f" d="M16.31,21.88V13.44l-2.25,2.25h8.44c1.18,0,2.3-1.03,2.25-2.25s-.99-2.25-2.25-2.25H14.06c-1.22,0-2.25,1.03-2.25,2.25v8.44c0,1.18,1.03,2.3,2.25,2.25s2.25-.99,2.25-2.25h0Z"/><path class="uuid-f0b4b31c-277f-4766-b165-ba1a7cdc5c6f" d="M62.75,21.88V13.44c0-1.22-1.03-2.25-2.25-2.25h-8.44c-1.18,0-2.3,1.03-2.25,2.25s.99,2.25,2.25,2.25h8.44l-2.25-2.25v8.44c0,1.18,1.03,2.3,2.25,2.25s2.25-.99,2.25-2.25h0Z"/><path class="uuid-f0b4b31c-277f-4766-b165-ba1a7cdc5c6f" d="M11.81,32.13v8.44c0,1.22,1.03,2.25,2.25,2.25h8.44c1.18,0,2.3-1.03,2.25-2.25s-.99-2.25-2.25-2.25H14.06l2.25,2.25v-8.44c0-1.18-1.03-2.3-2.25-2.25s-2.25,.99-2.25,2.25h0Z"/><path class="uuid-f0b4b31c-277f-4766-b165-ba1a7cdc5c6f" d="M58.25,32.13v8.44l2.25-2.25h-8.44c-1.18,0-2.3,1.03-2.25,2.25s.99,2.25,2.25,2.25h8.44c1.22,0,2.25-1.03,2.25-2.25v-8.44c0-1.18-1.03-2.3-2.25-2.25s-2.25,.99-2.25,2.25h0Z"/></g></svg>