<?xml version="1.0" encoding="UTF-8"?><svg id="uuid-f2ae409b-10e9-448f-bc70-7886d1c3ab3a" xmlns="http://www.w3.org/2000/svg" xmlns:xlink="http://www.w3.org/1999/xlink" viewBox="0 0 1920 1080"><defs><style>.uuid-a5b5ebeb-12fd-4c62-a994-48db852e4432{opacity:.35;}.uuid-3ac48edc-28ed-4c9f-904f-71686e74e761{mask:url(#uuid-04c73b09-55f3-4b75-a23c-070d5d1798ca);}.uuid-388057c6-1e2a-4391-bca4-1a20f9d1c072{fill:#e5a64b;}.uuid-b4153bbb-670f-4cbe-9cb0-044e259f83a8{fill:#9e7533;}.uuid-5dfb3996-f2ff-4cee-b2bc-20941d32b803{clip-path:url(#uuid-38bbf67d-0244-46ed-85a0-22af26bce26b);}.uuid-34c73fef-2adc-4556-9422-8309dbedea6a{fill:none;}.uuid-be7e09f4-24ee-481e-bf47-6aed3cb84a95{fill:#d39c44;}.uuid-00df2abf-38af-44a2-8e82-5feeda25ab5f{fill:#8fc1aa;}</style><clipPath id="uuid-38bbf67d-0244-46ed-85a0-22af26bce26b"><rect class="uuid-34c73fef-2adc-4556-9422-8309dbedea6a" x="146.13" y="37.08" width="1706.49" height="826.21"/></clipPath><mask id="uuid-04c73b09-55f3-4b75-a23c-070d5d1798ca" x="-163.5" y="37.08" width="2339.3" height="830.12" maskUnits="userSpaceOnUse"><polygon class="uuid-388057c6-1e2a-4391-bca4-1a20f9d1c072" points="1622.06 867.19 1622.07 867.2 1295.47 867.2 1295.47 867.19 297.92 867.19 353.37 807.25 415.54 740.03 959.99 151.45 1622.07 867.19 1622.06 867.19"/></mask></defs><g id="uuid-40a06059-f911-4c8f-b091-f2c7b31cde84"><rect class="uuid-00df2abf-38af-44a2-8e82-5feeda25ab5f" width="1920" height="879.75"/><rect class="uuid-be7e09f4-24ee-481e-bf47-6aed3cb84a95" y="867.66" width="1920" height="212.34"/><g><polygon class="uuid-388057c6-1e2a-4391-bca4-1a20f9d1c072" points="1622.06 867.19 1622.07 867.2 1295.47 867.2 1295.47 867.19 297.92 867.19 353.37 807.25 415.54 740.03 959.99 151.45 1622.07 867.19 1622.06 867.19"/><g class="uuid-a5b5ebeb-12fd-4c62-a994-48db852e4432"><g class="uuid-5dfb3996-f2ff-4cee-b2bc-20941d32b803"><g class="uuid-3ac48edc-28ed-4c9f-904f-71686e74e761"><g><g><rect class="uuid-b4153bbb-670f-4cbe-9cb0-044e259f83a8" x="187.41" y="37.08" width="154.61" height="67.22"/><rect class="uuid-b4153bbb-670f-4cbe-9cb0-044e259f83a8" x="275.58" y="120.71" width="154.61" height="67.22"/><rect class="uuid-b4153bbb-670f-4cbe-9cb0-044e259f83a8" x="275.58" y="120.71" width="154.61" height="67.22"/><rect class="uuid-b4153bbb-670f-4cbe-9cb0-044e259f83a8" x="99.24" y="120.71" width="154.61" height="67.22"/><rect class="uuid-b4153bbb-670f-4cbe-9cb0-044e259f83a8" x="11.07" y="37.08" width="154.61" height="67.22"/></g><g><rect class="uuid-b4153bbb-670f-4cbe-9cb0-044e259f83a8" x="536.53" y="37.08" width="154.61" height="67.22"/><rect class="uuid-b4153bbb-670f-4cbe-9cb0-044e259f83a8" x="624.7" y="120.71" width="154.61" height="67.22"/><rect class="uuid-b4153bbb-670f-4cbe-9cb0-044e259f83a8" x="624.7" y="120.71" width="154.61" height="67.22"/><rect class="uuid-b4153bbb-670f-4cbe-9cb0-044e259f83a8" x="448.36" y="120.71" width="154.61" height="67.22"/><rect class="uuid-b4153bbb-670f-4cbe-9cb0-044e259f83a8" x="360.19" y="37.08" width="154.61" height="67.22"/></g><g><rect class="uuid-b4153bbb-670f-4cbe-9cb0-044e259f83a8" x="885.66" y="37.08" width="154.61" height="67.22"/><rect class="uuid-b4153bbb-670f-4cbe-9cb0-044e259f83a8" x="973.83" y="120.71" width="154.61" height="67.22"/><rect class="uuid-b4153bbb-670f-4cbe-9cb0-044e259f83a8" x="973.83" y="120.71" width="154.61" height="67.22"/><rect class="uuid-b4153bbb-670f-4cbe-9cb0-044e259f83a8" x="797.48" y="120.71" width="154.61" height="67.22"/><rect class="uuid-b4153bbb-670f-4cbe-9cb0-044e259f83a8" x="709.31" y="37.08" width="154.61" height="67.22"/></g><g><rect class="uuid-b4153bbb-670f-4cbe-9cb0-044e259f83a8" x="1234.78" y="37.08" width="154.61" height="67.22"/><rect class="uuid-b4153bbb-670f-4cbe-9cb0-044e259f83a8" x="1322.95" y="120.71" width="154.61" height="67.22"/><rect class="uuid-b4153bbb-670f-4cbe-9cb0-044e259f83a8" x="1322.95" y="120.71" width="154.61" height="67.22"/><rect class="uuid-b4153bbb-670f-4cbe-9cb0-044e259f83a8" x="1146.61" y="120.71" width="154.61" height="67.22"/><rect class="uuid-b4153bbb-670f-4cbe-9cb0-044e259f83a8" x="1058.44" y="37.08" width="154.61" height="67.22"/></g><g><rect class="uuid-b4153bbb-670f-4cbe-9cb0-044e259f83a8" x="1583.9" y="37.08" width="154.61" height="67.22"/><rect class="uuid-b4153bbb-670f-4cbe-9cb0-044e259f83a8" x="1672.07" y="120.71" width="154.61" height="67.22"/><rect class="uuid-b4153bbb-670f-4cbe-9cb0-044e259f83a8" x="1672.07" y="120.71" width="154.61" height="67.22"/><rect class="uuid-b4153bbb-670f-4cbe-9cb0-044e259f83a8" x="1495.73" y="120.71" width="154.61" height="67.22"/><rect class="uuid-b4153bbb-670f-4cbe-9cb0-044e259f83a8" x="1407.56" y="37.08" width="154.61" height="67.22"/></g><g><rect class="uuid-b4153bbb-670f-4cbe-9cb0-044e259f83a8" x="1844.85" y="120.71" width="154.61" height="67.22"/><rect class="uuid-b4153bbb-670f-4cbe-9cb0-044e259f83a8" x="1756.68" y="37.08" width="154.61" height="67.22"/></g><g><rect class="uuid-b4153bbb-670f-4cbe-9cb0-044e259f83a8" x="12.85" y="203.93" width="154.61" height="67.22"/><rect class="uuid-b4153bbb-670f-4cbe-9cb0-044e259f83a8" x="101.02" y="287.55" width="154.61" height="67.22"/><rect class="uuid-b4153bbb-670f-4cbe-9cb0-044e259f83a8" x="101.02" y="287.55" width="154.61" height="67.22"/><rect class="uuid-b4153bbb-670f-4cbe-9cb0-044e259f83a8" x="-75.32" y="287.55" width="154.61" height="67.22"/></g><g><rect class="uuid-b4153bbb-670f-4cbe-9cb0-044e259f83a8" x="361.97" y="203.93" width="154.61" height="67.22"/><rect class="uuid-b4153bbb-670f-4cbe-9cb0-044e259f83a8" x="450.14" y="287.55" width="154.61" height="67.22"/><rect class="uuid-b4153bbb-670f-4cbe-9cb0-044e259f83a8" x="450.14" y="287.55" width="154.61" height="67.22"/><rect class="uuid-b4153bbb-670f-4cbe-9cb0-044e259f83a8" x="273.8" y="287.55" width="154.61" height="67.22"/><rect class="uuid-b4153bbb-670f-4cbe-9cb0-044e259f83a8" x="185.63" y="203.93" width="154.61" height="67.22"/></g><g><rect class="uuid-b4153bbb-670f-4cbe-9cb0-044e259f83a8" x="711.09" y="203.93" width="154.61" height="67.22"/><rect class="uuid-b4153bbb-670f-4cbe-9cb0-044e259f83a8" x="799.27" y="287.55" width="154.61" height="67.22"/><rect class="uuid-b4153bbb-670f-4cbe-9cb0-044e259f83a8" x="799.27" y="287.55" width="154.61" height="67.22"/><rect class="uuid-b4153bbb-670f-4cbe-9cb0-044e259f83a8" x="622.92" y="287.55" width="154.61" height="67.22"/><rect class="uuid-b4153bbb-670f-4cbe-9cb0-044e259f83a8" x="534.75" y="203.93" width="154.61" height="67.22"/></g><g><rect class="uuid-b4153bbb-670f-4cbe-9cb0-044e259f83a8" x="1060.22" y="203.93" width="154.61" height="67.22"/><rect class="uuid-b4153bbb-670f-4cbe-9cb0-044e259f83a8" x="1148.39" y="287.55" width="154.61" height="67.22"/><rect class="uuid-b4153bbb-670f-4cbe-9cb0-044e259f83a8" x="1148.39" y="287.55" width="154.61" height="67.22"/><rect class="uuid-b4153bbb-670f-4cbe-9cb0-044e259f83a8" x="972.05" y="287.55" width="154.61" height="67.22"/><rect class="uuid-b4153bbb-670f-4cbe-9cb0-044e259f83a8" x="883.87" y="203.93" width="154.61" height="67.22"/></g><g><rect class="uuid-b4153bbb-670f-4cbe-9cb0-044e259f83a8" x="1409.34" y="203.93" width="154.61" height="67.22"/><rect class="uuid-b4153bbb-670f-4cbe-9cb0-044e259f83a8" x="1497.51" y="287.55" width="154.61" height="67.22"/><rect class="uuid-b4153bbb-670f-4cbe-9cb0-044e259f83a8" x="1497.51" y="287.55" width="154.61" height="67.22"/><rect class="uuid-b4153bbb-670f-4cbe-9cb0-044e259f83a8" x="1321.17" y="287.55" width="154.61" height="67.22"/><rect class="uuid-b4153bbb-670f-4cbe-9cb0-044e259f83a8" x="1233" y="203.93" width="154.61" height="67.22"/></g><g><rect class="uuid-b4153bbb-670f-4cbe-9cb0-044e259f83a8" x="1758.46" y="203.93" width="154.61" height="67.22"/><rect class="uuid-b4153bbb-670f-4cbe-9cb0-044e259f83a8" x="1846.64" y="287.55" width="154.61" height="67.22"/><rect class="uuid-b4153bbb-670f-4cbe-9cb0-044e259f83a8" x="1846.64" y="287.55" width="154.61" height="67.22"/><rect class="uuid-b4153bbb-670f-4cbe-9cb0-044e259f83a8" x="1670.29" y="287.55" width="154.61" height="67.22"/><rect class="uuid-b4153bbb-670f-4cbe-9cb0-044e259f83a8" x="1582.12" y="203.93" width="154.61" height="67.22"/></g><g><rect class="uuid-b4153bbb-670f-4cbe-9cb0-044e259f83a8" x="187.41" y="370.78" width="154.61" height="67.22"/><rect class="uuid-b4153bbb-670f-4cbe-9cb0-044e259f83a8" x="275.58" y="454.4" width="154.61" height="67.22"/><rect class="uuid-b4153bbb-670f-4cbe-9cb0-044e259f83a8" x="275.58" y="454.4" width="154.61" height="67.22"/><rect class="uuid-b4153bbb-670f-4cbe-9cb0-044e259f83a8" x="99.24" y="454.4" width="154.61" height="67.22"/><rect class="uuid-b4153bbb-670f-4cbe-9cb0-044e259f83a8" x="11.07" y="370.78" width="154.61" height="67.22"/></g><g><rect class="uuid-b4153bbb-670f-4cbe-9cb0-044e259f83a8" x="536.53" y="370.78" width="154.61" height="67.22"/><rect class="uuid-b4153bbb-670f-4cbe-9cb0-044e259f83a8" x="624.7" y="454.4" width="154.61" height="67.22"/><rect class="uuid-b4153bbb-670f-4cbe-9cb0-044e259f83a8" x="624.7" y="454.4" width="154.61" height="67.22"/><rect class="uuid-b4153bbb-670f-4cbe-9cb0-044e259f83a8" x="448.36" y="454.4" width="154.61" height="67.22"/><rect class="uuid-b4153bbb-670f-4cbe-9cb0-044e259f83a8" x="360.19" y="370.78" width="154.61" height="67.22"/></g><g><rect class="uuid-b4153bbb-670f-4cbe-9cb0-044e259f83a8" x="885.66" y="370.78" width="154.61" height="67.22"/><rect class="uuid-b4153bbb-670f-4cbe-9cb0-044e259f83a8" x="973.83" y="454.4" width="154.61" height="67.22"/><rect class="uuid-b4153bbb-670f-4cbe-9cb0-044e259f83a8" x="973.83" y="454.4" width="154.61" height="67.22"/><rect class="uuid-b4153bbb-670f-4cbe-9cb0-044e259f83a8" x="797.48" y="454.4" width="154.61" height="67.22"/><rect class="uuid-b4153bbb-670f-4cbe-9cb0-044e259f83a8" x="709.31" y="370.78" width="154.61" height="67.22"/></g><g><rect class="uuid-b4153bbb-670f-4cbe-9cb0-044e259f83a8" x="1234.78" y="370.78" width="154.61" height="67.22"/><rect class="uuid-b4153bbb-670f-4cbe-9cb0-044e259f83a8" x="1322.95" y="454.4" width="154.61" height="67.22"/><rect class="uuid-b4153bbb-670f-4cbe-9cb0-044e259f83a8" x="1322.95" y="454.4" width="154.61" height="67.22"/><rect class="uuid-b4153bbb-670f-4cbe-9cb0-044e259f83a8" x="1146.61" y="454.4" width="154.61" height="67.22"/><rect class="uuid-b4153bbb-670f-4cbe-9cb0-044e259f83a8" x="1058.44" y="370.78" width="154.61" height="67.22"/></g><g><rect class="uuid-b4153bbb-670f-4cbe-9cb0-044e259f83a8" x="1583.9" y="370.78" width="154.61" height="67.22"/><rect class="uuid-b4153bbb-670f-4cbe-9cb0-044e259f83a8" x="1672.07" y="454.4" width="154.61" height="67.22"/><rect class="uuid-b4153bbb-670f-4cbe-9cb0-044e259f83a8" x="1672.07" y="454.4" width="154.61" height="67.22"/><rect class="uuid-b4153bbb-670f-4cbe-9cb0-044e259f83a8" x="1495.73" y="454.4" width="154.61" height="67.22"/><rect class="uuid-b4153bbb-670f-4cbe-9cb0-044e259f83a8" x="1407.56" y="370.78" width="154.61" height="67.22"/></g><g><rect class="uuid-b4153bbb-670f-4cbe-9cb0-044e259f83a8" x="1844.85" y="454.4" width="154.61" height="67.22"/><rect class="uuid-b4153bbb-670f-4cbe-9cb0-044e259f83a8" x="1756.68" y="370.78" width="154.61" height="67.22"/></g><g><rect class="uuid-b4153bbb-670f-4cbe-9cb0-044e259f83a8" x="12.85" y="537.62" width="154.61" height="67.22"/><rect class="uuid-b4153bbb-670f-4cbe-9cb0-044e259f83a8" x="101.02" y="621.25" width="154.61" height="67.22"/><rect class="uuid-b4153bbb-670f-4cbe-9cb0-044e259f83a8" x="101.02" y="621.25" width="154.61" height="67.22"/><rect class="uuid-b4153bbb-670f-4cbe-9cb0-044e259f83a8" x="-75.32" y="621.25" width="154.61" height="67.22"/></g><g><rect class="uuid-b4153bbb-670f-4cbe-9cb0-044e259f83a8" x="361.97" y="537.62" width="154.61" height="67.22"/><rect class="uuid-b4153bbb-670f-4cbe-9cb0-044e259f83a8" x="450.14" y="621.25" width="154.61" height="67.22"/><rect class="uuid-b4153bbb-670f-4cbe-9cb0-044e259f83a8" x="450.14" y="621.25" width="154.61" height="67.22"/><rect class="uuid-b4153bbb-670f-4cbe-9cb0-044e259f83a8" x="273.8" y="621.25" width="154.61" height="67.22"/><rect class="uuid-b4153bbb-670f-4cbe-9cb0-044e259f83a8" x="185.63" y="537.62" width="154.61" height="67.22"/></g><g><rect class="uuid-b4153bbb-670f-4cbe-9cb0-044e259f83a8" x="711.09" y="537.62" width="154.61" height="67.22"/><rect class="uuid-b4153bbb-670f-4cbe-9cb0-044e259f83a8" x="799.27" y="621.25" width="154.61" height="67.22"/><rect class="uuid-b4153bbb-670f-4cbe-9cb0-044e259f83a8" x="799.27" y="621.25" width="154.61" height="67.22"/><rect class="uuid-b4153bbb-670f-4cbe-9cb0-044e259f83a8" x="622.92" y="621.25" width="154.61" height="67.22"/><rect class="uuid-b4153bbb-670f-4cbe-9cb0-044e259f83a8" x="534.75" y="537.62" width="154.61" height="67.22"/></g><g><rect class="uuid-b4153bbb-670f-4cbe-9cb0-044e259f83a8" x="1060.22" y="537.62" width="154.61" height="67.22"/><rect class="uuid-b4153bbb-670f-4cbe-9cb0-044e259f83a8" x="1148.39" y="621.25" width="154.61" height="67.22"/><rect class="uuid-b4153bbb-670f-4cbe-9cb0-044e259f83a8" x="1148.39" y="621.25" width="154.61" height="67.22"/><rect class="uuid-b4153bbb-670f-4cbe-9cb0-044e259f83a8" x="972.05" y="621.25" width="154.61" height="67.22"/><rect class="uuid-b4153bbb-670f-4cbe-9cb0-044e259f83a8" x="883.87" y="537.62" width="154.61" height="67.22"/></g><g><rect class="uuid-b4153bbb-670f-4cbe-9cb0-044e259f83a8" x="1409.34" y="537.62" width="154.61" height="67.22"/><rect class="uuid-b4153bbb-670f-4cbe-9cb0-044e259f83a8" x="1497.51" y="621.25" width="154.61" height="67.22"/><rect class="uuid-b4153bbb-670f-4cbe-9cb0-044e259f83a8" x="1497.51" y="621.25" width="154.61" height="67.22"/><rect class="uuid-b4153bbb-670f-4cbe-9cb0-044e259f83a8" x="1321.17" y="621.25" width="154.61" height="67.22"/><rect class="uuid-b4153bbb-670f-4cbe-9cb0-044e259f83a8" x="1233" y="537.62" width="154.61" height="67.22"/></g><g><rect class="uuid-b4153bbb-670f-4cbe-9cb0-044e259f83a8" x="1758.46" y="537.62" width="154.61" height="67.22"/><rect class="uuid-b4153bbb-670f-4cbe-9cb0-044e259f83a8" x="1846.64" y="621.25" width="154.61" height="67.22"/><rect class="uuid-b4153bbb-670f-4cbe-9cb0-044e259f83a8" x="1846.64" y="621.25" width="154.61" height="67.22"/><rect class="uuid-b4153bbb-670f-4cbe-9cb0-044e259f83a8" x="1670.29" y="621.25" width="154.61" height="67.22"/><rect class="uuid-b4153bbb-670f-4cbe-9cb0-044e259f83a8" x="1582.12" y="537.62" width="154.61" height="67.22"/></g><g><rect class="uuid-b4153bbb-670f-4cbe-9cb0-044e259f83a8" x="187.41" y="704.47" width="154.61" height="67.22"/><rect class="uuid-b4153bbb-670f-4cbe-9cb0-044e259f83a8" x="275.58" y="788.09" width="154.61" height="67.22"/><rect class="uuid-b4153bbb-670f-4cbe-9cb0-044e259f83a8" x="275.58" y="788.09" width="154.61" height="67.22"/><rect class="uuid-b4153bbb-670f-4cbe-9cb0-044e259f83a8" x="99.24" y="788.09" width="154.61" height="67.22"/><rect class="uuid-b4153bbb-670f-4cbe-9cb0-044e259f83a8" x="11.07" y="704.47" width="154.61" height="67.22"/></g><g><rect class="uuid-b4153bbb-670f-4cbe-9cb0-044e259f83a8" x="536.53" y="704.47" width="154.61" height="67.22"/><rect class="uuid-b4153bbb-670f-4cbe-9cb0-044e259f83a8" x="624.7" y="788.09" width="154.61" height="67.22"/><rect class="uuid-b4153bbb-670f-4cbe-9cb0-044e259f83a8" x="624.7" y="788.09" width="154.61" height="67.22"/><rect class="uuid-b4153bbb-670f-4cbe-9cb0-044e259f83a8" x="448.36" y="788.09" width="154.61" height="67.22"/><rect class="uuid-b4153bbb-670f-4cbe-9cb0-044e259f83a8" x="360.19" y="704.47" width="154.61" height="67.22"/></g><g><rect class="uuid-b4153bbb-670f-4cbe-9cb0-044e259f83a8" x="885.66" y="704.47" width="154.61" height="67.22"/><rect class="uuid-b4153bbb-670f-4cbe-9cb0-044e259f83a8" x="973.83" y="788.09" width="154.61" height="67.22"/><rect class="uuid-b4153bbb-670f-4cbe-9cb0-044e259f83a8" x="973.83" y="788.09" width="154.61" height="67.22"/><rect class="uuid-b4153bbb-670f-4cbe-9cb0-044e259f83a8" x="797.48" y="788.09" width="154.61" height="67.22"/><rect class="uuid-b4153bbb-670f-4cbe-9cb0-044e259f83a8" x="709.31" y="704.47" width="154.61" height="67.22"/></g><g><rect class="uuid-b4153bbb-670f-4cbe-9cb0-044e259f83a8" x="1234.78" y="704.47" width="154.61" height="67.22"/><rect class="uuid-b4153bbb-670f-4cbe-9cb0-044e259f83a8" x="1322.95" y="788.09" width="154.61" height="67.22"/><rect class="uuid-b4153bbb-670f-4cbe-9cb0-044e259f83a8" x="1322.95" y="788.09" width="154.61" height="67.22"/><rect class="uuid-b4153bbb-670f-4cbe-9cb0-044e259f83a8" x="1146.61" y="788.09" width="154.61" height="67.22"/><rect class="uuid-b4153bbb-670f-4cbe-9cb0-044e259f83a8" x="1058.44" y="704.47" width="154.61" height="67.22"/></g><g><rect class="uuid-b4153bbb-670f-4cbe-9cb0-044e259f83a8" x="1583.9" y="704.47" width="154.61" height="67.22"/><rect class="uuid-b4153bbb-670f-4cbe-9cb0-044e259f83a8" x="1672.07" y="788.09" width="154.61" height="67.22"/><rect class="uuid-b4153bbb-670f-4cbe-9cb0-044e259f83a8" x="1672.07" y="788.09" width="154.61" height="67.22"/><rect class="uuid-b4153bbb-670f-4cbe-9cb0-044e259f83a8" x="1495.73" y="788.09" width="154.61" height="67.22"/><rect class="uuid-b4153bbb-670f-4cbe-9cb0-044e259f83a8" x="1407.56" y="704.47" width="154.61" height="67.22"/></g><g><rect class="uuid-b4153bbb-670f-4cbe-9cb0-044e259f83a8" x="1844.85" y="788.09" width="154.61" height="67.22"/><rect class="uuid-b4153bbb-670f-4cbe-9cb0-044e259f83a8" x="1756.68" y="704.47" width="154.61" height="67.22"/></g></g></g></g></g></g></g></svg>