<?xml version="1.0" encoding="UTF-8"?><svg id="uuid-de2d80f7-a6a9-4279-b374-aac5833c3265" xmlns="http://www.w3.org/2000/svg" xmlns:xlink="http://www.w3.org/1999/xlink" viewBox="0 0 1920 1080"><defs><style>.uuid-5050ab03-5a0c-450d-add6-f385e80eac4d{mask:url(#uuid-bd83d60e-6cfd-4783-9a98-309e29e1eb7d);}.uuid-41ffab53-0a4b-4579-afe1-d08d9aa58763{opacity:.35;}.uuid-ff306d81-aadd-4060-af97-2c4388eec83e{fill:#e5a64b;}.uuid-5fe43bfa-24f0-4a7d-8d84-6df318ee6249{clip-path:url(#uuid-5bfa6871-56ab-444a-99d8-ab2c4cf34d9c);}.uuid-5cff571a-77bf-443d-8fb7-04a4b15c8682{fill:#9e7533;}.uuid-e3f4367f-6386-4df4-b345-206291d5f281{fill:none;}.uuid-b6df537e-ac6b-40d5-8ec6-af6999d8899d{fill:#d39c44;}.uuid-7febe010-8b27-4117-894a-dd1482dbd091{fill:#8fc1aa;}</style><clipPath id="uuid-5bfa6871-56ab-444a-99d8-ab2c4cf34d9c"><rect class="uuid-e3f4367f-6386-4df4-b345-206291d5f281" x="146.13" y="37.08" width="1706.49" height="826.21"/></clipPath><mask id="uuid-bd83d60e-6cfd-4783-9a98-309e29e1eb7d" x="-163.5" y="37.08" width="2339.3" height="830.12" maskUnits="userSpaceOnUse"><polygon class="uuid-ff306d81-aadd-4060-af97-2c4388eec83e" points="1622.06 867.19 1622.07 867.2 1295.47 867.2 1295.47 867.19 297.92 867.19 353.37 807.25 415.54 740.03 959.99 151.45 1622.07 867.19 1622.06 867.19"/></mask></defs><g id="uuid-123679e7-9dd9-4fe1-9d3f-1c5b8c1f9652"><rect class="uuid-7febe010-8b27-4117-894a-dd1482dbd091" width="1920" height="879.75"/><rect class="uuid-b6df537e-ac6b-40d5-8ec6-af6999d8899d" y="867.66" width="1920" height="212.34"/><g><polygon class="uuid-ff306d81-aadd-4060-af97-2c4388eec83e" points="1622.06 867.19 1622.07 867.2 1295.47 867.2 1295.47 867.19 297.92 867.19 353.37 807.25 415.54 740.03 959.99 151.45 1622.07 867.19 1622.06 867.19"/><g class="uuid-41ffab53-0a4b-4579-afe1-d08d9aa58763"><g class="uuid-5fe43bfa-24f0-4a7d-8d84-6df318ee6249"><g class="uuid-5050ab03-5a0c-450d-add6-f385e80eac4d"><g><g><rect class="uuid-5cff571a-77bf-443d-8fb7-04a4b15c8682" x="187.41" y="37.08" width="154.61" height="67.22"/><rect class="uuid-5cff571a-77bf-443d-8fb7-04a4b15c8682" x="275.58" y="120.71" width="154.61" height="67.22"/><rect class="uuid-5cff571a-77bf-443d-8fb7-04a4b15c8682" x="275.58" y="120.71" width="154.61" height="67.22"/><rect class="uuid-5cff571a-77bf-443d-8fb7-04a4b15c8682" x="99.24" y="120.71" width="154.61" height="67.22"/><rect class="uuid-5cff571a-77bf-443d-8fb7-04a4b15c8682" x="11.07" y="37.08" width="154.61" height="67.22"/></g><g><rect class="uuid-5cff571a-77bf-443d-8fb7-04a4b15c8682" x="536.53" y="37.08" width="154.61" height="67.22"/><rect class="uuid-5cff571a-77bf-443d-8fb7-04a4b15c8682" x="624.7" y="120.71" width="154.61" height="67.22"/><rect class="uuid-5cff571a-77bf-443d-8fb7-04a4b15c8682" x="624.7" y="120.71" width="154.61" height="67.22"/><rect class="uuid-5cff571a-77bf-443d-8fb7-04a4b15c8682" x="448.36" y="120.71" width="154.61" height="67.22"/><rect class="uuid-5cff571a-77bf-443d-8fb7-04a4b15c8682" x="360.19" y="37.08" width="154.61" height="67.22"/></g><g><rect class="uuid-5cff571a-77bf-443d-8fb7-04a4b15c8682" x="885.66" y="37.08" width="154.61" height="67.22"/><rect class="uuid-5cff571a-77bf-443d-8fb7-04a4b15c8682" x="973.83" y="120.71" width="154.61" height="67.22"/><rect class="uuid-5cff571a-77bf-443d-8fb7-04a4b15c8682" x="973.83" y="120.71" width="154.61" height="67.22"/><rect class="uuid-5cff571a-77bf-443d-8fb7-04a4b15c8682" x="797.48" y="120.71" width="154.61" height="67.22"/><rect class="uuid-5cff571a-77bf-443d-8fb7-04a4b15c8682" x="709.31" y="37.08" width="154.61" height="67.22"/></g><g><rect class="uuid-5cff571a-77bf-443d-8fb7-04a4b15c8682" x="1234.78" y="37.08" width="154.61" height="67.22"/><rect class="uuid-5cff571a-77bf-443d-8fb7-04a4b15c8682" x="1322.95" y="120.71" width="154.61" height="67.22"/><rect class="uuid-5cff571a-77bf-443d-8fb7-04a4b15c8682" x="1322.95" y="120.71" width="154.61" height="67.22"/><rect class="uuid-5cff571a-77bf-443d-8fb7-04a4b15c8682" x="1146.61" y="120.71" width="154.61" height="67.22"/><rect class="uuid-5cff571a-77bf-443d-8fb7-04a4b15c8682" x="1058.44" y="37.08" width="154.61" height="67.22"/></g><g><rect class="uuid-5cff571a-77bf-443d-8fb7-04a4b15c8682" x="1583.9" y="37.08" width="154.61" height="67.22"/><rect class="uuid-5cff571a-77bf-443d-8fb7-04a4b15c8682" x="1672.07" y="120.71" width="154.61" height="67.22"/><rect class="uuid-5cff571a-77bf-443d-8fb7-04a4b15c8682" x="1672.07" y="120.71" width="154.61" height="67.22"/><rect class="uuid-5cff571a-77bf-443d-8fb7-04a4b15c8682" x="1495.73" y="120.71" width="154.61" height="67.22"/><rect class="uuid-5cff571a-77bf-443d-8fb7-04a4b15c8682" x="1407.56" y="37.08" width="154.61" height="67.22"/></g><g><rect class="uuid-5cff571a-77bf-443d-8fb7-04a4b15c8682" x="1844.85" y="120.71" width="154.61" height="67.22"/><rect class="uuid-5cff571a-77bf-443d-8fb7-04a4b15c8682" x="1756.68" y="37.08" width="154.61" height="67.22"/></g><g><rect class="uuid-5cff571a-77bf-443d-8fb7-04a4b15c8682" x="12.85" y="203.93" width="154.61" height="67.22"/><rect class="uuid-5cff571a-77bf-443d-8fb7-04a4b15c8682" x="101.02" y="287.55" width="154.61" height="67.22"/><rect class="uuid-5cff571a-77bf-443d-8fb7-04a4b15c8682" x="101.02" y="287.55" width="154.61" height="67.22"/><rect class="uuid-5cff571a-77bf-443d-8fb7-04a4b15c8682" x="-75.32" y="287.55" width="154.61" height="67.22"/></g><g><rect class="uuid-5cff571a-77bf-443d-8fb7-04a4b15c8682" x="361.97" y="203.93" width="154.61" height="67.22"/><rect class="uuid-5cff571a-77bf-443d-8fb7-04a4b15c8682" x="450.14" y="287.55" width="154.61" height="67.22"/><rect class="uuid-5cff571a-77bf-443d-8fb7-04a4b15c8682" x="450.14" y="287.55" width="154.61" height="67.22"/><rect class="uuid-5cff571a-77bf-443d-8fb7-04a4b15c8682" x="273.8" y="287.55" width="154.61" height="67.22"/><rect class="uuid-5cff571a-77bf-443d-8fb7-04a4b15c8682" x="185.63" y="203.93" width="154.61" height="67.22"/></g><g><rect class="uuid-5cff571a-77bf-443d-8fb7-04a4b15c8682" x="711.09" y="203.93" width="154.61" height="67.22"/><rect class="uuid-5cff571a-77bf-443d-8fb7-04a4b15c8682" x="799.27" y="287.55" width="154.61" height="67.22"/><rect class="uuid-5cff571a-77bf-443d-8fb7-04a4b15c8682" x="799.27" y="287.55" width="154.61" height="67.22"/><rect class="uuid-5cff571a-77bf-443d-8fb7-04a4b15c8682" x="622.92" y="287.55" width="154.61" height="67.22"/><rect class="uuid-5cff571a-77bf-443d-8fb7-04a4b15c8682" x="534.75" y="203.93" width="154.61" height="67.22"/></g><g><rect class="uuid-5cff571a-77bf-443d-8fb7-04a4b15c8682" x="1060.22" y="203.93" width="154.61" height="67.22"/><rect class="uuid-5cff571a-77bf-443d-8fb7-04a4b15c8682" x="1148.39" y="287.55" width="154.61" height="67.22"/><rect class="uuid-5cff571a-77bf-443d-8fb7-04a4b15c8682" x="1148.39" y="287.55" width="154.61" height="67.22"/><rect class="uuid-5cff571a-77bf-443d-8fb7-04a4b15c8682" x="972.05" y="287.55" width="154.61" height="67.22"/><rect class="uuid-5cff571a-77bf-443d-8fb7-04a4b15c8682" x="883.87" y="203.93" width="154.61" height="67.22"/></g><g><rect class="uuid-5cff571a-77bf-443d-8fb7-04a4b15c8682" x="1409.34" y="203.93" width="154.61" height="67.22"/><rect class="uuid-5cff571a-77bf-443d-8fb7-04a4b15c8682" x="1497.51" y="287.55" width="154.61" height="67.22"/><rect class="uuid-5cff571a-77bf-443d-8fb7-04a4b15c8682" x="1497.51" y="287.55" width="154.61" height="67.22"/><rect class="uuid-5cff571a-77bf-443d-8fb7-04a4b15c8682" x="1321.17" y="287.55" width="154.61" height="67.22"/><rect class="uuid-5cff571a-77bf-443d-8fb7-04a4b15c8682" x="1233" y="203.93" width="154.61" height="67.22"/></g><g><rect class="uuid-5cff571a-77bf-443d-8fb7-04a4b15c8682" x="1758.46" y="203.93" width="154.61" height="67.22"/><rect class="uuid-5cff571a-77bf-443d-8fb7-04a4b15c8682" x="1846.64" y="287.55" width="154.61" height="67.22"/><rect class="uuid-5cff571a-77bf-443d-8fb7-04a4b15c8682" x="1846.64" y="287.55" width="154.61" height="67.22"/><rect class="uuid-5cff571a-77bf-443d-8fb7-04a4b15c8682" x="1670.29" y="287.55" width="154.61" height="67.22"/><rect class="uuid-5cff571a-77bf-443d-8fb7-04a4b15c8682" x="1582.12" y="203.93" width="154.61" height="67.22"/></g><g><rect class="uuid-5cff571a-77bf-443d-8fb7-04a4b15c8682" x="187.41" y="370.78" width="154.61" height="67.22"/><rect class="uuid-5cff571a-77bf-443d-8fb7-04a4b15c8682" x="275.58" y="454.4" width="154.61" height="67.22"/><rect class="uuid-5cff571a-77bf-443d-8fb7-04a4b15c8682" x="275.58" y="454.4" width="154.61" height="67.22"/><rect class="uuid-5cff571a-77bf-443d-8fb7-04a4b15c8682" x="99.24" y="454.4" width="154.61" height="67.22"/><rect class="uuid-5cff571a-77bf-443d-8fb7-04a4b15c8682" x="11.07" y="370.78" width="154.61" height="67.22"/></g><g><rect class="uuid-5cff571a-77bf-443d-8fb7-04a4b15c8682" x="536.53" y="370.78" width="154.61" height="67.22"/><rect class="uuid-5cff571a-77bf-443d-8fb7-04a4b15c8682" x="624.7" y="454.4" width="154.61" height="67.22"/><rect class="uuid-5cff571a-77bf-443d-8fb7-04a4b15c8682" x="624.7" y="454.4" width="154.61" height="67.22"/><rect class="uuid-5cff571a-77bf-443d-8fb7-04a4b15c8682" x="448.36" y="454.4" width="154.61" height="67.22"/><rect class="uuid-5cff571a-77bf-443d-8fb7-04a4b15c8682" x="360.19" y="370.78" width="154.61" height="67.22"/></g><g><rect class="uuid-5cff571a-77bf-443d-8fb7-04a4b15c8682" x="885.66" y="370.78" width="154.61" height="67.22"/><rect class="uuid-5cff571a-77bf-443d-8fb7-04a4b15c8682" x="973.83" y="454.4" width="154.61" height="67.22"/><rect class="uuid-5cff571a-77bf-443d-8fb7-04a4b15c8682" x="973.83" y="454.4" width="154.61" height="67.22"/><rect class="uuid-5cff571a-77bf-443d-8fb7-04a4b15c8682" x="797.48" y="454.4" width="154.61" height="67.22"/><rect class="uuid-5cff571a-77bf-443d-8fb7-04a4b15c8682" x="709.31" y="370.78" width="154.61" height="67.22"/></g><g><rect class="uuid-5cff571a-77bf-443d-8fb7-04a4b15c8682" x="1234.78" y="370.78" width="154.61" height="67.22"/><rect class="uuid-5cff571a-77bf-443d-8fb7-04a4b15c8682" x="1322.95" y="454.4" width="154.61" height="67.22"/><rect class="uuid-5cff571a-77bf-443d-8fb7-04a4b15c8682" x="1322.95" y="454.4" width="154.61" height="67.22"/><rect class="uuid-5cff571a-77bf-443d-8fb7-04a4b15c8682" x="1146.61" y="454.4" width="154.61" height="67.22"/><rect class="uuid-5cff571a-77bf-443d-8fb7-04a4b15c8682" x="1058.44" y="370.78" width="154.61" height="67.22"/></g><g><rect class="uuid-5cff571a-77bf-443d-8fb7-04a4b15c8682" x="1583.9" y="370.78" width="154.61" height="67.22"/><rect class="uuid-5cff571a-77bf-443d-8fb7-04a4b15c8682" x="1672.07" y="454.4" width="154.61" height="67.22"/><rect class="uuid-5cff571a-77bf-443d-8fb7-04a4b15c8682" x="1672.07" y="454.4" width="154.61" height="67.22"/><rect class="uuid-5cff571a-77bf-443d-8fb7-04a4b15c8682" x="1495.73" y="454.4" width="154.61" height="67.22"/><rect class="uuid-5cff571a-77bf-443d-8fb7-04a4b15c8682" x="1407.56" y="370.78" width="154.61" height="67.22"/></g><g><rect class="uuid-5cff571a-77bf-443d-8fb7-04a4b15c8682" x="1844.85" y="454.4" width="154.61" height="67.22"/><rect class="uuid-5cff571a-77bf-443d-8fb7-04a4b15c8682" x="1756.68" y="370.78" width="154.61" height="67.22"/></g><g><rect class="uuid-5cff571a-77bf-443d-8fb7-04a4b15c8682" x="12.85" y="537.62" width="154.61" height="67.22"/><rect class="uuid-5cff571a-77bf-443d-8fb7-04a4b15c8682" x="101.02" y="621.25" width="154.61" height="67.22"/><rect class="uuid-5cff571a-77bf-443d-8fb7-04a4b15c8682" x="101.02" y="621.25" width="154.61" height="67.22"/><rect class="uuid-5cff571a-77bf-443d-8fb7-04a4b15c8682" x="-75.32" y="621.25" width="154.61" height="67.22"/></g><g><rect class="uuid-5cff571a-77bf-443d-8fb7-04a4b15c8682" x="361.97" y="537.62" width="154.61" height="67.22"/><rect class="uuid-5cff571a-77bf-443d-8fb7-04a4b15c8682" x="450.14" y="621.25" width="154.61" height="67.22"/><rect class="uuid-5cff571a-77bf-443d-8fb7-04a4b15c8682" x="450.14" y="621.25" width="154.61" height="67.22"/><rect class="uuid-5cff571a-77bf-443d-8fb7-04a4b15c8682" x="273.8" y="621.25" width="154.61" height="67.22"/><rect class="uuid-5cff571a-77bf-443d-8fb7-04a4b15c8682" x="185.63" y="537.62" width="154.61" height="67.22"/></g><g><rect class="uuid-5cff571a-77bf-443d-8fb7-04a4b15c8682" x="711.09" y="537.62" width="154.61" height="67.22"/><rect class="uuid-5cff571a-77bf-443d-8fb7-04a4b15c8682" x="799.27" y="621.25" width="154.61" height="67.22"/><rect class="uuid-5cff571a-77bf-443d-8fb7-04a4b15c8682" x="799.27" y="621.25" width="154.61" height="67.22"/><rect class="uuid-5cff571a-77bf-443d-8fb7-04a4b15c8682" x="622.92" y="621.25" width="154.61" height="67.22"/><rect class="uuid-5cff571a-77bf-443d-8fb7-04a4b15c8682" x="534.75" y="537.62" width="154.61" height="67.22"/></g><g><rect class="uuid-5cff571a-77bf-443d-8fb7-04a4b15c8682" x="1060.22" y="537.62" width="154.61" height="67.22"/><rect class="uuid-5cff571a-77bf-443d-8fb7-04a4b15c8682" x="1148.39" y="621.25" width="154.61" height="67.22"/><rect class="uuid-5cff571a-77bf-443d-8fb7-04a4b15c8682" x="1148.39" y="621.25" width="154.61" height="67.22"/><rect class="uuid-5cff571a-77bf-443d-8fb7-04a4b15c8682" x="972.05" y="621.25" width="154.61" height="67.22"/><rect class="uuid-5cff571a-77bf-443d-8fb7-04a4b15c8682" x="883.87" y="537.62" width="154.61" height="67.22"/></g><g><rect class="uuid-5cff571a-77bf-443d-8fb7-04a4b15c8682" x="1409.34" y="537.62" width="154.61" height="67.22"/><rect class="uuid-5cff571a-77bf-443d-8fb7-04a4b15c8682" x="1497.51" y="621.25" width="154.61" height="67.22"/><rect class="uuid-5cff571a-77bf-443d-8fb7-04a4b15c8682" x="1497.51" y="621.25" width="154.61" height="67.22"/><rect class="uuid-5cff571a-77bf-443d-8fb7-04a4b15c8682" x="1321.17" y="621.25" width="154.61" height="67.22"/><rect class="uuid-5cff571a-77bf-443d-8fb7-04a4b15c8682" x="1233" y="537.62" width="154.61" height="67.22"/></g><g><rect class="uuid-5cff571a-77bf-443d-8fb7-04a4b15c8682" x="1758.46" y="537.62" width="154.61" height="67.22"/><rect class="uuid-5cff571a-77bf-443d-8fb7-04a4b15c8682" x="1846.64" y="621.25" width="154.61" height="67.22"/><rect class="uuid-5cff571a-77bf-443d-8fb7-04a4b15c8682" x="1846.64" y="621.25" width="154.61" height="67.22"/><rect class="uuid-5cff571a-77bf-443d-8fb7-04a4b15c8682" x="1670.29" y="621.25" width="154.61" height="67.22"/><rect class="uuid-5cff571a-77bf-443d-8fb7-04a4b15c8682" x="1582.12" y="537.62" width="154.61" height="67.22"/></g><g><rect class="uuid-5cff571a-77bf-443d-8fb7-04a4b15c8682" x="187.41" y="704.47" width="154.61" height="67.22"/><rect class="uuid-5cff571a-77bf-443d-8fb7-04a4b15c8682" x="275.58" y="788.09" width="154.61" height="67.22"/><rect class="uuid-5cff571a-77bf-443d-8fb7-04a4b15c8682" x="275.58" y="788.09" width="154.61" height="67.22"/><rect class="uuid-5cff571a-77bf-443d-8fb7-04a4b15c8682" x="99.24" y="788.09" width="154.61" height="67.22"/><rect class="uuid-5cff571a-77bf-443d-8fb7-04a4b15c8682" x="11.07" y="704.47" width="154.61" height="67.22"/></g><g><rect class="uuid-5cff571a-77bf-443d-8fb7-04a4b15c8682" x="536.53" y="704.47" width="154.61" height="67.22"/><rect class="uuid-5cff571a-77bf-443d-8fb7-04a4b15c8682" x="624.7" y="788.09" width="154.61" height="67.22"/><rect class="uuid-5cff571a-77bf-443d-8fb7-04a4b15c8682" x="624.7" y="788.09" width="154.61" height="67.22"/><rect class="uuid-5cff571a-77bf-443d-8fb7-04a4b15c8682" x="448.36" y="788.09" width="154.61" height="67.22"/><rect class="uuid-5cff571a-77bf-443d-8fb7-04a4b15c8682" x="360.19" y="704.47" width="154.61" height="67.22"/></g><g><rect class="uuid-5cff571a-77bf-443d-8fb7-04a4b15c8682" x="885.66" y="704.47" width="154.61" height="67.22"/><rect class="uuid-5cff571a-77bf-443d-8fb7-04a4b15c8682" x="973.83" y="788.09" width="154.61" height="67.22"/><rect class="uuid-5cff571a-77bf-443d-8fb7-04a4b15c8682" x="973.83" y="788.09" width="154.61" height="67.22"/><rect class="uuid-5cff571a-77bf-443d-8fb7-04a4b15c8682" x="797.48" y="788.09" width="154.61" height="67.22"/><rect class="uuid-5cff571a-77bf-443d-8fb7-04a4b15c8682" x="709.31" y="704.47" width="154.61" height="67.22"/></g><g><rect class="uuid-5cff571a-77bf-443d-8fb7-04a4b15c8682" x="1234.78" y="704.47" width="154.61" height="67.22"/><rect class="uuid-5cff571a-77bf-443d-8fb7-04a4b15c8682" x="1322.95" y="788.09" width="154.61" height="67.22"/><rect class="uuid-5cff571a-77bf-443d-8fb7-04a4b15c8682" x="1322.95" y="788.09" width="154.61" height="67.22"/><rect class="uuid-5cff571a-77bf-443d-8fb7-04a4b15c8682" x="1146.61" y="788.09" width="154.61" height="67.22"/><rect class="uuid-5cff571a-77bf-443d-8fb7-04a4b15c8682" x="1058.44" y="704.47" width="154.61" height="67.22"/></g><g><rect class="uuid-5cff571a-77bf-443d-8fb7-04a4b15c8682" x="1583.9" y="704.47" width="154.61" height="67.22"/><rect class="uuid-5cff571a-77bf-443d-8fb7-04a4b15c8682" x="1672.07" y="788.09" width="154.61" height="67.22"/><rect class="uuid-5cff571a-77bf-443d-8fb7-04a4b15c8682" x="1672.07" y="788.09" width="154.61" height="67.22"/><rect class="uuid-5cff571a-77bf-443d-8fb7-04a4b15c8682" x="1495.73" y="788.09" width="154.61" height="67.22"/><rect class="uuid-5cff571a-77bf-443d-8fb7-04a4b15c8682" x="1407.56" y="704.47" width="154.61" height="67.22"/></g><g><rect class="uuid-5cff571a-77bf-443d-8fb7-04a4b15c8682" x="1844.85" y="788.09" width="154.61" height="67.22"/><rect class="uuid-5cff571a-77bf-443d-8fb7-04a4b15c8682" x="1756.68" y="704.47" width="154.61" height="67.22"/></g></g></g></g></g></g><rect class="uuid-b6df537e-ac6b-40d5-8ec6-af6999d8899d" x="297.92" y="867.19" width="1324.15" height="1.03"/></g></svg>