<?xml version="1.0" encoding="UTF-8"?><svg id="uuid-33894ece-abd0-4919-88d6-58b710b6107d" xmlns="http://www.w3.org/2000/svg" viewBox="0 0 1920 1080"><defs><style>.uuid-50c94305-d342-4f3e-bbde-b3568823cf72{fill:#ac7d37;}.uuid-d89d06b7-d2df-4bb8-a18b-26beca133413{fill:#feda85;}.uuid-15196f09-9a07-4484-a6dc-ae1b7877b1e3{fill:#e5a64b;}.uuid-6410e06a-31b5-4a05-8a56-8be8a5fe8536{fill:none;}.uuid-8bab04b7-a337-4cd9-9ac1-579212060600{fill:#d39c44;}.uuid-6e108edc-cbee-4b7b-9045-a9541c5b092c{fill:#8fc1aa;}</style></defs><g id="uuid-eee72c6f-db35-441e-b465-4b2855ea5817"><rect class="uuid-6e108edc-cbee-4b7b-9045-a9541c5b092c" width="1920" height="879.75"/><g><polygon class="uuid-15196f09-9a07-4484-a6dc-ae1b7877b1e3" points="960 151.46 297.93 867.21 1622.07 867.21 960 151.46"/><polygon class="uuid-d89d06b7-d2df-4bb8-a18b-26beca133413" points="1622.07 867.21 1295.48 867.21 960 151.46 1622.07 867.21"/></g><rect class="uuid-8bab04b7-a337-4cd9-9ac1-579212060600" y="867.66" width="1920" height="212.34"/><g><polygon class="uuid-15196f09-9a07-4484-a6dc-ae1b7877b1e3" points="1028.38 224.58 893.1 224.58 960.74 151.46 1028.38 224.58"/><polygon class="uuid-15196f09-9a07-4484-a6dc-ae1b7877b1e3" points="844.41 277.22 844.41 313.65 810.71 313.65 844.41 277.22"/><polygon class="uuid-15196f09-9a07-4484-a6dc-ae1b7877b1e3" points="844.41 333.77 844.41 402.98 728.08 402.98 792.1 333.77 844.41 333.77"/><polygon class="uuid-15196f09-9a07-4484-a6dc-ae1b7877b1e3" points="419.24 736.86 419.24 759.77 398.05 759.77 419.24 736.86"/><polygon class="uuid-15196f09-9a07-4484-a6dc-ae1b7877b1e3" points="419.24 779.88 419.24 849.02 315.5 849.02 379.45 779.88 419.24 779.88"/><polygon class="uuid-15196f09-9a07-4484-a6dc-ae1b7877b1e3" points="631.85 690.56 631.85 759.77 439.36 759.77 439.36 715.11 462.07 690.56 631.85 690.56"/><rect class="uuid-15196f09-9a07-4484-a6dc-ae1b7877b1e3" x="439.36" y="779.88" width="192.49" height="69.14"/><rect class="uuid-15196f09-9a07-4484-a6dc-ae1b7877b1e3" x="651.97" y="779.88" width="192.44" height="69.14"/><rect class="uuid-15196f09-9a07-4484-a6dc-ae1b7877b1e3" x="651.97" y="690.56" width="192.44" height="69.21"/><polygon class="uuid-15196f09-9a07-4484-a6dc-ae1b7877b1e3" points="631.85 507.02 631.85 581.37 563.07 581.37 627.1 512.15 631.85 507.02"/><polygon class="uuid-15196f09-9a07-4484-a6dc-ae1b7877b1e3" points="631.85 601.48 631.85 670.44 480.68 670.44 544.47 601.48 631.85 601.48"/><rect class="uuid-15196f09-9a07-4484-a6dc-ae1b7877b1e3" x="651.97" y="601.48" width="192.44" height="68.96"/><polygon class="uuid-15196f09-9a07-4484-a6dc-ae1b7877b1e3" points="844.41 423.09 844.41 492.04 645.7 492.04 651.97 485.26 709.48 423.09 844.41 423.09"/><rect class="uuid-15196f09-9a07-4484-a6dc-ae1b7877b1e3" x="651.97" y="512.15" width="192.44" height="69.22"/><polygon class="uuid-15196f09-9a07-4484-a6dc-ae1b7877b1e3" points="1056.96 255.48 1056.96 313.65 864.53 313.65 864.53 255.47 874.5 244.69 1046.98 244.69 1056.96 255.48"/><rect class="uuid-15196f09-9a07-4484-a6dc-ae1b7877b1e3" x="864.53" y="333.77" width="192.43" height="69.21"/><rect class="uuid-15196f09-9a07-4484-a6dc-ae1b7877b1e3" x="864.53" y="423.09" width="192.43" height="68.95"/><rect class="uuid-15196f09-9a07-4484-a6dc-ae1b7877b1e3" x="864.53" y="512.15" width="192.43" height="69.22"/><rect class="uuid-15196f09-9a07-4484-a6dc-ae1b7877b1e3" x="864.53" y="601.48" width="192.43" height="68.96"/><rect class="uuid-15196f09-9a07-4484-a6dc-ae1b7877b1e3" x="864.53" y="690.56" width="192.43" height="69.21"/><rect class="uuid-15196f09-9a07-4484-a6dc-ae1b7877b1e3" x="864.53" y="779.88" width="192.43" height="69.14"/><rect class="uuid-15196f09-9a07-4484-a6dc-ae1b7877b1e3" x="1077.08" y="690.56" width="192.44" height="69.21"/><rect class="uuid-15196f09-9a07-4484-a6dc-ae1b7877b1e3" x="1077.08" y="779.88" width="192.44" height="69.14"/><polygon class="uuid-15196f09-9a07-4484-a6dc-ae1b7877b1e3" points="1110.77 313.65 1077.08 313.65 1077.08 277.23 1110.77 313.65"/><polygon class="uuid-15196f09-9a07-4484-a6dc-ae1b7877b1e3" points="1193.4 402.98 1077.08 402.98 1077.08 333.77 1129.38 333.77 1193.4 402.98"/><rect class="uuid-15196f09-9a07-4484-a6dc-ae1b7877b1e3" x="1077.08" y="512.15" width="192.44" height="69.22"/><polygon class="uuid-15196f09-9a07-4484-a6dc-ae1b7877b1e3" points="1275.78 492.04 1077.08 492.04 1077.08 423.09 1212 423.09 1269.52 485.27 1275.78 492.04"/><polygon class="uuid-15196f09-9a07-4484-a6dc-ae1b7877b1e3" points="1358.41 581.37 1289.64 581.37 1289.64 507.02 1294.38 512.15 1358.41 581.37"/><rect class="uuid-15196f09-9a07-4484-a6dc-ae1b7877b1e3" x="1077.08" y="601.48" width="192.44" height="68.96"/><polygon class="uuid-15196f09-9a07-4484-a6dc-ae1b7877b1e3" points="1440.8 670.44 1289.64 670.44 1289.64 601.48 1377.02 601.48 1440.8 670.44"/><polygon class="uuid-15196f09-9a07-4484-a6dc-ae1b7877b1e3" points="1482.13 715.12 1482.13 759.77 1289.64 759.77 1289.64 690.56 1459.42 690.56 1482.13 715.12"/><rect class="uuid-15196f09-9a07-4484-a6dc-ae1b7877b1e3" x="1289.64" y="779.88" width="192.49" height="69.14"/><polygon class="uuid-15196f09-9a07-4484-a6dc-ae1b7877b1e3" points="1523.44 759.77 1502.25 759.77 1502.25 736.87 1523.44 759.77"/><polygon class="uuid-15196f09-9a07-4484-a6dc-ae1b7877b1e3" points="1605.99 849.02 1502.25 849.02 1502.25 779.88 1542.04 779.88 1605.99 849.02"/><line class="uuid-6410e06a-31b5-4a05-8a56-8be8a5fe8536" x1="480.22" y1="670.44" x2="544" y2="601.49"/><line class="uuid-6410e06a-31b5-4a05-8a56-8be8a5fe8536" x1="562.61" y1="581.37" x2="626.63" y2="512.16"/><line class="uuid-6410e06a-31b5-4a05-8a56-8be8a5fe8536" x1="791.64" y1="333.77" x2="727.62" y2="402.98"/><line class="uuid-6410e06a-31b5-4a05-8a56-8be8a5fe8536" x1="709.01" y1="423.09" x2="651.97" y2="484.76"/><line class="uuid-6410e06a-31b5-4a05-8a56-8be8a5fe8536" x1="727.62" y1="402.98" x2="709.01" y2="423.09"/><line class="uuid-6410e06a-31b5-4a05-8a56-8be8a5fe8536" x1="562.61" y1="581.37" x2="544" y2="601.48"/><line class="uuid-6410e06a-31b5-4a05-8a56-8be8a5fe8536" x1="397.59" y1="759.77" x2="378.98" y2="779.88"/><polygon class="uuid-6410e06a-31b5-4a05-8a56-8be8a5fe8536" points="844.41 276.72 844.41 313.65 810.25 313.65 844.41 276.72"/><polygon class="uuid-6410e06a-31b5-4a05-8a56-8be8a5fe8536" points="1269.52 484.97 1269.52 492.04 1077.08 492.04 1077.08 423.09 1212.29 423.09 1269.52 484.97"/><rect class="uuid-6410e06a-31b5-4a05-8a56-8be8a5fe8536" x="1077.08" y="512.15" width="192.44" height="69.22"/><rect class="uuid-6410e06a-31b5-4a05-8a56-8be8a5fe8536" x="651.97" y="601.48" width="192.44" height="68.96"/><polygon class="uuid-6410e06a-31b5-4a05-8a56-8be8a5fe8536" points="844.41 423.09 844.41 492.04 651.97 492.04 651.97 484.76 709.01 423.09 844.41 423.09"/><polygon class="uuid-6410e06a-31b5-4a05-8a56-8be8a5fe8536" points="1441.08 670.44 1289.64 670.44 1289.64 601.48 1377.3 601.48 1441.08 670.44"/><rect class="uuid-6410e06a-31b5-4a05-8a56-8be8a5fe8536" x="651.97" y="512.15" width="192.44" height="69.22"/><rect class="uuid-6410e06a-31b5-4a05-8a56-8be8a5fe8536" x="1077.08" y="601.48" width="192.44" height="68.96"/><polygon class="uuid-6410e06a-31b5-4a05-8a56-8be8a5fe8536" points="1111.05 313.65 1077.08 313.65 1077.08 276.93 1111.05 313.65"/><polygon class="uuid-6410e06a-31b5-4a05-8a56-8be8a5fe8536" points="1193.67 402.98 1077.08 402.98 1077.08 333.77 1129.66 333.77 1193.67 402.98"/><polygon class="uuid-6410e06a-31b5-4a05-8a56-8be8a5fe8536" points="1358.69 581.37 1289.64 581.37 1289.64 512.15 1294.67 512.15 1358.69 581.37"/><polygon class="uuid-6410e06a-31b5-4a05-8a56-8be8a5fe8536" points="844.41 333.77 844.41 402.98 727.62 402.98 791.64 333.77 844.41 333.77"/><rect class="uuid-6410e06a-31b5-4a05-8a56-8be8a5fe8536" x="864.53" y="333.77" width="192.43" height="69.21"/><rect class="uuid-6410e06a-31b5-4a05-8a56-8be8a5fe8536" x="651.97" y="690.56" width="192.44" height="69.21"/><polygon class="uuid-6410e06a-31b5-4a05-8a56-8be8a5fe8536" points="1482.13 714.81 1482.13 759.77 1289.64 759.77 1289.64 690.56 1459.69 690.56 1482.13 714.81"/><rect class="uuid-6410e06a-31b5-4a05-8a56-8be8a5fe8536" x="1289.64" y="779.88" width="192.49" height="69.14"/><polygon class="uuid-6410e06a-31b5-4a05-8a56-8be8a5fe8536" points="419.24 736.36 419.24 759.77 397.59 759.77 419.24 736.36"/><polygon class="uuid-6410e06a-31b5-4a05-8a56-8be8a5fe8536" points="1523.71 759.77 1502.25 759.77 1502.25 736.56 1523.71 759.77"/><polygon class="uuid-6410e06a-31b5-4a05-8a56-8be8a5fe8536" points="1606.28 849.02 1502.25 849.02 1502.25 779.88 1542.32 779.88 1606.28 849.02"/><polygon class="uuid-6410e06a-31b5-4a05-8a56-8be8a5fe8536" points="631.85 690.56 631.85 759.77 439.36 759.77 439.36 714.61 461.6 690.56 631.85 690.56"/><rect class="uuid-6410e06a-31b5-4a05-8a56-8be8a5fe8536" x="1077.08" y="779.88" width="192.44" height="69.14"/><polygon class="uuid-6410e06a-31b5-4a05-8a56-8be8a5fe8536" points="1056.96 255.18 1056.96 313.65 864.53 313.65 864.53 254.97 874.03 244.69 1047.26 244.69 1056.96 255.18"/><polygon class="uuid-6410e06a-31b5-4a05-8a56-8be8a5fe8536" points="419.24 779.88 419.24 849.02 315.02 849.02 378.98 779.88 419.24 779.88"/><rect class="uuid-6410e06a-31b5-4a05-8a56-8be8a5fe8536" x="1077.08" y="690.56" width="192.44" height="69.21"/><polygon class="uuid-6410e06a-31b5-4a05-8a56-8be8a5fe8536" points="631.85 601.48 631.85 670.44 480.21 670.44 544 601.48 631.85 601.48"/><rect class="uuid-6410e06a-31b5-4a05-8a56-8be8a5fe8536" x="864.53" y="512.15" width="192.43" height="69.22"/><polygon class="uuid-6410e06a-31b5-4a05-8a56-8be8a5fe8536" points="631.85 512.15 631.85 581.37 562.61 581.37 626.63 512.15 631.85 512.15"/><rect class="uuid-6410e06a-31b5-4a05-8a56-8be8a5fe8536" x="864.53" y="690.56" width="192.43" height="69.21"/><rect class="uuid-6410e06a-31b5-4a05-8a56-8be8a5fe8536" x="864.53" y="423.09" width="192.43" height="68.95"/><rect class="uuid-6410e06a-31b5-4a05-8a56-8be8a5fe8536" x="864.53" y="601.48" width="192.43" height="68.96"/><path class="uuid-50c94305-d342-4f3e-bbde-b3568823cf72" d="m1622.45,866.81l-.15-.16-16.31-17.63h-103.74v-69.14h39.79l-18.6-20.11h-21.19v-22.9l-20.12-21.75v44.65h-192.49v-69.21h169.78l-18.62-20.12h-151.16v-68.96h87.38l-18.61-20.11h-68.77v-74.35l-13.86-14.98h-198.7v-68.95h134.92l-18.6-20.11h-116.32v-69.21h52.3l-18.61-20.12h-33.69v-36.42l-20.12-21.75v58.17h-192.43v-58.18l-20.12,21.75v36.43h-33.7l-18.61,20.12h52.31v69.21h-116.33l-18.6,20.11h134.93v68.95h-198.71l-13.85,14.98v74.35h-68.78l-18.6,20.11h87.38v68.96h-151.17l-18.61,20.12h169.78v69.21h-192.49v-44.66l-20.12,21.75v22.91h-21.19l-18.6,20.11h39.79v69.14h-103.74l-16.31,17.63h352.78v.15h-352.92l-.38.41h1324.15l-.37-.4Zm-990.6-17.79h-192.49v-69.14h192.49v69.14Zm657.79-69.14h192.49v69.14h-192.49v-69.14Zm-212.56-267.73h192.44v69.22h-192.44v-69.22Zm0,89.33h192.44v68.96h-192.44v-68.96Zm0,89.08h192.44v69.21h-192.44v-69.21Zm-212.55-356.79h192.43v69.21h-192.43v-69.21Zm0,89.32h192.43v68.95h-192.43v-68.95Zm0,89.06h192.43v69.22h-192.43v-69.22Zm0,89.33h192.43v68.96h-192.43v-68.96Zm0,89.08h192.43v69.21h-192.43v-69.21Zm-212.56-178.41h192.44v69.22h-192.44v-69.22Zm0,89.33h192.44v68.96h-192.44v-68.96Zm0,89.08h192.44v69.21h-192.44v-69.21Zm0,89.32h192.44v69.14h-192.44v-69.14Zm212.56,86.92h-20.12v-.15h20.12v.15Zm0-86.92h192.43v69.14h-192.43v-69.14Zm212.55,86.92h-20.12v-.15h20.12v.15Zm0-86.92h192.44v69.14h-192.44v-69.14Zm425.17,86.93h-206.13s-26.6-.01-26.6-.01v-.15h232.73v.16Z"/><rect class="uuid-6410e06a-31b5-4a05-8a56-8be8a5fe8536" x="651.97" y="779.88" width="192.44" height="69.14"/><rect class="uuid-6410e06a-31b5-4a05-8a56-8be8a5fe8536" x="864.53" y="779.88" width="192.43" height="69.14"/><rect class="uuid-6410e06a-31b5-4a05-8a56-8be8a5fe8536" x="439.36" y="779.88" width="192.49" height="69.14"/><polygon class="uuid-50c94305-d342-4f3e-bbde-b3568823cf72" points="1046.98 244.69 874.5 244.69 893.1 224.58 1028.38 224.58 1046.98 244.69"/><polygon class="uuid-50c94305-d342-4f3e-bbde-b3568823cf72" points="892.64 224.58 893.1 224.58 874.5 244.69 874.03 244.69 892.64 224.58"/><polygon class="uuid-50c94305-d342-4f3e-bbde-b3568823cf72" points="1047.26 244.69 1046.98 244.69 1028.38 224.58 1028.65 224.58 1047.26 244.69"/><polygon class="uuid-50c94305-d342-4f3e-bbde-b3568823cf72" points="1294.67 512.15 1289.64 512.15 1289.64 506.72 1294.67 512.15"/><polygon class="uuid-50c94305-d342-4f3e-bbde-b3568823cf72" points="631.85 506.51 631.85 512.15 626.63 512.15 631.85 506.51"/><polygon class="uuid-50c94305-d342-4f3e-bbde-b3568823cf72" points="1276.06 492.04 1269.52 492.04 1269.52 484.97 1276.06 492.04"/><polygon class="uuid-50c94305-d342-4f3e-bbde-b3568823cf72" points="651.97 484.76 651.97 492.04 645.24 492.04 651.97 484.76"/></g></g></svg>